HIERARCHY
ROOT hip
{
  OFFSET 241.026 85.126 -47.4755
  CHANNELS 6 Xposition Yposition Zposition Zrotation Xrotation Yrotation
  JOINT abdomen
  {
    OFFSET 0 20.6881 -0.73152
    CHANNELS 3 Zrotation Xrotation Yrotation
    JOINT chest
    {
      OFFSET 0 11.7043 -0.48768
      CHANNELS 3 Zrotation Xrotation Yrotation
      JOINT neck
      {
        OFFSET 0 22.1894 -2.19456
        CHANNELS 3 Zrotation Xrotation Yrotation
        JOINT head
        {
          OFFSET -0.24384 7.07133 1.2192
          CHANNELS 3 Zrotation Xrotation Yrotation
          JOINT leftEye
          {
            OFFSET 4.14528 8.04674 8.04672
            CHANNELS 3 Zrotation Xrotation Yrotation
            End Site
            {
              OFFSET 1 0 0
            }
          }
          JOINT rightEye
          {
            OFFSET -3.6576 8.04674 8.04672
            CHANNELS 3 Zrotation Xrotation Yrotation
            End Site
            {
              OFFSET 1 0 0
            }
          }
        }
      }
      JOINT rCollar
      {
        OFFSET -2.68224 19.2634 -4.8768
        CHANNELS 3 Zrotation Xrotation Yrotation
        JOINT rShldr
        {
          OFFSET -8.77824 -1.95073 1.46304
          CHANNELS 3 Zrotation Xrotation Yrotation
          JOINT rForeArm
          {
            OFFSET -28.1742 -1.7115 0.48768
            CHANNELS 3 Zrotation Xrotation Yrotation
            JOINT rHand
            {
              OFFSET -22.5879 0.773209 7.07136
              CHANNELS 3 Zrotation Xrotation Yrotation
              JOINT rThumb1
              {
                OFFSET -1.2192 -0.487915 3.41376
                CHANNELS 3 Zrotation Xrotation Yrotation
                JOINT rThumb2
                {
                  OFFSET -3.37035 -0.52449 3.41376
                  CHANNELS 3 Zrotation Xrotation Yrotation
                  End Site
                  {
                    OFFSET -1.78271 -1.18214 1.43049
                  }
                }
              }
              JOINT rIndex1
              {
                OFFSET -7.75947 0.938293 5.60832
                CHANNELS 3 Zrotation Xrotation Yrotation
                JOINT rIndex2
                {
                  OFFSET -2.54057 -0.884171 1.56538
                  CHANNELS 3 Zrotation Xrotation Yrotation
                  End Site
                  {
                    OFFSET -1.62519 -0.234802 1.16502
                  }
                }
              }
              JOINT rMid1
              {
                OFFSET -8.24714 1.18213 3.41376
                CHANNELS 3 Zrotation Xrotation Yrotation
                JOINT rMid2
                {
                  OFFSET -3.10165 -0.590103 1.0647
                  CHANNELS 3 Zrotation Xrotation Yrotation
                  End Site
                  {
                    OFFSET -2.48547 -0.328903 0.83742
                  }
                }
              }
              JOINT rRing1
              {
                OFFSET -8.82822 0.546677 1.51678
                CHANNELS 3 Zrotation Xrotation Yrotation
                JOINT rRing2
                {
                  OFFSET -2.60934 -0.819778 -0.0198488
                  CHANNELS 3 Zrotation Xrotation Yrotation
                  End Site
                  {
                    OFFSET -2.33842 -0.294052 0.168128
                  }
                }
              }
              JOINT rPinky1
              {
                OFFSET -8.27202 -0.0477905 -0.4584
                CHANNELS 3 Zrotation Xrotation Yrotation
                JOINT rPinky2
                {
                  OFFSET -1.82734 -0.647385 -0.700984
                  CHANNELS 3 Zrotation Xrotation Yrotation
                  End Site
                  {
                    OFFSET -1.69225 -0.51767 -0.607171
                  }
                }
              }
            }
          }
        }
      }
      JOINT lCollar
      {
        OFFSET 2.68224 19.2634 -4.8768
        CHANNELS 3 Zrotation Xrotation Yrotation
        JOINT lShldr
        {
          OFFSET 8.77824 -1.95073 1.46304
          CHANNELS 3 Zrotation Xrotation Yrotation
          JOINT lForeArm
          {
            OFFSET 28.1742 -1.7115 0.48768
            CHANNELS 3 Zrotation Xrotation Yrotation
            JOINT lHand
            {
              OFFSET 22.5879 0.773209 7.07136
              CHANNELS 3 Zrotation Xrotation Yrotation
              JOINT lThumb1
              {
                OFFSET 1.2192 -0.487915 3.41376
                CHANNELS 3 Zrotation Xrotation Yrotation
                JOINT lThumb2
                {
                  OFFSET 3.37035 -0.52449 3.41376
                  CHANNELS 3 Zrotation Xrotation Yrotation
                  End Site
                  {
                    OFFSET 1.78271 -1.18214 1.43049
                  }
                }
              }
              JOINT lIndex1
              {
                OFFSET 7.75947 0.938293 5.60832
                CHANNELS 3 Zrotation Xrotation Yrotation
                JOINT lIndex2
                {
                  OFFSET 2.54057 -0.884171 1.56538
                  CHANNELS 3 Zrotation Xrotation Yrotation
                  End Site
                  {
                    OFFSET 1.62519 -0.234802 1.16502
                  }
                }
              }
              JOINT lMid1
              {
                OFFSET 8.24714 1.18213 3.41376
                CHANNELS 3 Zrotation Xrotation Yrotation
                JOINT lMid2
                {
                  OFFSET 3.10165 -0.590103 1.0647
                  CHANNELS 3 Zrotation Xrotation Yrotation
                  End Site
                  {
                    OFFSET 2.48547 -0.328903 0.83742
                  }
                }
              }
              JOINT lRing1
              {
                OFFSET 8.82822 0.546677 1.51678
                CHANNELS 3 Zrotation Xrotation Yrotation
                JOINT lRing2
                {
                  OFFSET 2.60934 -0.819778 -0.0198488
                  CHANNELS 3 Zrotation Xrotation Yrotation
                  End Site
                  {
                    OFFSET 2.33842 -0.294052 0.168128
                  }
                }
              }
              JOINT lPinky1
              {
                OFFSET 8.27202 -0.0477905 -0.4584
                CHANNELS 3 Zrotation Xrotation Yrotation
                JOINT lPinky2
                {
                  OFFSET 1.82734 -0.647385 -0.700984
                  CHANNELS 3 Zrotation Xrotation Yrotation
                  End Site
                  {
                    OFFSET 1.69225 -0.51767 -0.607171
                  }
                }
              }
            }
          }
        }
      }
    }
  }
  JOINT rButtock
  {
    OFFSET -8.77824 4.35084 1.2192
    CHANNELS 3 Zrotation Xrotation Yrotation
    JOINT rThigh
    {
      OFFSET 0 -1.70687 -2.19456
      CHANNELS 3 Zrotation Xrotation Yrotation
      JOINT rShin
      {
        OFFSET 0 -36.8199 0.73152
        CHANNELS 3 Zrotation Xrotation Yrotation
        JOINT rFoot
        {
          OFFSET 0.73152 -45.1104 -5.12064
          CHANNELS 3 Zrotation Xrotation Yrotation
          End Site
          {
            OFFSET -1.1221 -3.69964 12.103
          }
        }
      }
    }
  }
  JOINT lButtock
  {
    OFFSET 8.77824 4.35084 1.2192
    CHANNELS 3 Zrotation Xrotation Yrotation
    JOINT lThigh
    {
      OFFSET 0 -1.70687 -2.19456
      CHANNELS 3 Zrotation Xrotation Yrotation
      JOINT lShin
      {
        OFFSET 0 -36.8199 0.73152
        CHANNELS 3 Zrotation Xrotation Yrotation
        JOINT lFoot
        {
          OFFSET -0.73152 -45.1104 -5.12064
          CHANNELS 3 Zrotation Xrotation Yrotation
          End Site
          {
            OFFSET 1.1221 -3.69964 12.103
          }
        }
      }
    }
  }
}
MOTION
Frames:	4
Frame Time:	0.00833333
270.597 83.8614 -41.4464 0.195924 -0.000559707 -0.00334295 -0.257808 -0.00149941 -0.00737514 -0.071164 -0.00234961 -0.012329 -5.3391e-016 -1.59028e-015 7.14382e-017 -1.57164e-015 -6.36111e-015 2.12762e-016 -0 0 0 -0 0 0 -2.99521e-016 -1.35888e-018 1.98785e-016 -2.4123e-015 -1.42876e-016 1.78906e-015 -9.46712e-014 2.44505e-014 3.18055e-015 -1.07351e-012 -4.47017e-014 1.62208e-013 -2.53359e-012 -4.57104e-014 3.72125e-013 -4.3673e-012 -7.95139e-014 6.32135e-013 -2.52496e-012 -4.13472e-014 3.59403e-013 7.73091 5.47488 0.417314 -2.53177e-012 -4.49253e-014 3.68944e-013 2.90554 0.965183 0.102902 -2.52043e-012 -4.51241e-014 3.68944e-013 10.2786 0.731801 0.0259123 -2.53172e-012 -4.65156e-014 3.78486e-013 2.22167 -0.733487 -0.20892 -1.97458e-016 -1.35888e-018 -9.93923e-017 -8.71925e-015 6.21202e-017 -1.98785e-016 -9.33791e-014 -3.22031e-014 3.18055e-014 -1.07556e-012 8.77137e-015 1.52667e-013 -2.53312e-012 -5.26174e-014 3.72125e-013 -4.37167e-012 -9.22361e-014 6.41677e-013 -2.54007e-012 -5.00937e-014 3.78486e-013 -7.73091 5.47488 -0.417314 -2.53217e-012 -5.2181e-014 3.72125e-013 -2.90554 0.965183 -0.102902 -2.54186e-012 -5.2181e-014 3.70535e-013 -10.2786 0.731801 -0.0259123 -2.53053e-012 -5.12864e-014 3.62583e-013 -2.22167 -0.733487 0.20892 -2.03217e-016 0 -3.88251e-019 0.288574 -2.74965 -0.0315113 -0.00677235 -0.571702 -0.0593215 -0.483494 3.32101 0.122375 2.03217e-016 0 3.88251e-019 -0.681361 -3.75931 0.0561634 0.00387408 1.25718 0.0320688 0.487118 2.50184 -0.106252 
265.004 80.9971 -46.1736 7.73643 15.1792 27.0836 -2.80602 2.8293 -2.06481 0.259241 1.75159 -0.723343 0.857066 3.29366 0.96717 0.652532 -5.27723 1.90867 -0 0 0 -0 0 0 -2.82494e-014 2.26124e-013 -2.03494e-014 19.1313 12.3439 -0.222797 -4.4685 -2.08199 6.92297 0.00711554 -1.88141 -0.263909 2.81948e-010 1.00402e-010 -9.40136e-011 4.8742e-010 1.73074e-010 -1.61516e-010 2.81958e-010 1.00407e-010 -9.40275e-011 7.73091 5.47488 0.417314 2.8195e-010 1.00403e-010 -9.40159e-011 2.90554 0.965183 0.102902 2.81961e-010 1.00404e-010 -9.40198e-011 10.2786 0.731801 0.0259123 2.8195e-010 1.004e-010 -9.40075e-011 2.22167 -0.733487 -0.20892 -2.82049e-014 2.2612e-013 -2.06523e-014 -18.0668 13.4999 -6.00926 16.5891 -14.0009 -14.9145 -0.0639144 -5.61308 0.775259 6.25133e-012 2.80935e-010 -2.47395e-010 1.43248e-011 4.86362e-010 -4.26735e-010 6.24391e-012 2.80936e-010 -2.47392e-010 -7.73091 5.47488 -0.417314 6.2557e-012 2.80937e-010 -2.47401e-010 -2.90554 0.965183 -0.102902 6.24423e-012 2.80933e-010 -2.47398e-010 -10.2786 0.731801 -0.0259123 6.25467e-012 2.80935e-010 -2.47406e-010 -2.22167 -0.733487 0.20892 -2.03217e-016 0 -3.88251e-019 -0.893756 -16.5057 1.79006 0.0654423 18.1219 0.211662 -0.628836 -1.14731 -1.30617 2.03217e-016 0 3.88251e-019 -2.97326 -4.21188 4.13162 -0.107711 8.26056 -0.23785 0.925469 -5.35287 2.77769 
264.564 80.9029 -46.0424 2.1018 19.7664 58.8173 -5.26984 5.80812 -4.24159 0.655217 3.60077 -1.47274 1.64184 6.76746 1.99596 1.72804 -10.8274 3.97135 -0 0 0 -0 0 0 -6.00481e-014 4.81573e-013 -4.26611e-014 39.4948 25.3804 -0.434803 -8.66522 -4.19296 14.2953 -0.00434676 -3.89268 -0.54701 5.75903e-010 1.9133e-010 -1.60865e-010 9.95511e-010 3.29705e-010 -2.7597e-010 5.75914e-010 1.91335e-010 -1.6088e-010 7.73091 5.47488 0.417314 5.75904e-010 1.9133e-010 -1.60866e-010 2.90554 0.965183 0.102902 5.75915e-010 1.91333e-010 -1.60874e-010 10.2786 0.731801 0.0259123 5.75904e-010 1.91327e-010 -1.60859e-010 2.22167 -0.733487 -0.20892 -6.00652e-014 4.81565e-013 -4.29717e-014 -33.844 27.2603 -13.472 25.7685 -25.3773 -33.3144 0.0367417 -11.5382 1.61921 1.58411e-011 5.52875e-010 -4.8937e-010 3.42525e-011 9.57034e-010 -8.44021e-010 1.58332e-011 5.52873e-010 -4.89372e-010 -7.73091 5.47488 -0.417314 1.58493e-011 5.52879e-010 -4.89383e-010 -2.90554 0.965183 -0.102902 1.58357e-011 5.52869e-010 -4.89374e-010 -10.2786 0.731801 -0.0259123 1.58452e-011 5.52871e-010 -4.89382e-010 -2.22167 -0.733487 0.20892 -2.03217e-016 0 -3.88251e-019 -1.04433 -30.9716 4.15093 -0.0945354 37.9013 0.603974 -1.02423 -5.85135 -2.82595 2.03217e-016 0 3.88251e-019 -5.31654 -4.69849 8.44372 -0.151147 15.6929 -0.537464 2.26775 -13.5981 5.96664 
264.102 80.813 -45.9383 -4.54573 9.12023 82.488 -7.28816 8.44678 -6.24008 1.05108 5.2562 -2.15342 2.2335 9.86964 2.94027 3.04543 -15.76 5.92523 -0 0 0 -0 0 0 -8.41492e-014 6.78373e-013 -6.14458e-014 57.7437 37.0293 -0.817893 -11.9262 -5.88201 20.8701 -0.0308627 -5.64375 -0.795154 8.50912e-010 3.01298e-010 -2.82785e-010 1.47099e-009 5.19381e-010 -4.85813e-010 8.50925e-010 3.01302e-010 -2.82801e-010 7.73091 5.47488 0.417314 8.50913e-010 3.01298e-010 -2.82786e-010 2.90554 0.965183 0.102902 8.50925e-010 3.01302e-010 -2.82797e-010 10.2786 0.731801 0.0259123 8.50914e-010 3.01294e-010 -2.82779e-010 2.22167 -0.733487 -0.20892 -8.42199e-014 6.78363e-013 -6.1758e-014 -43.8931 38.4632 -22.621 27.816 -29.9608 -52.4522 0.281157 -16.8266 2.41822 2.38202e-011 8.42911e-010 -7.42929e-010 5.17177e-011 1.45927e-009 -1.28149e-009 2.38119e-011 8.42907e-010 -7.42934e-010 -7.73091 5.47488 -0.417314 2.38314e-011 8.42917e-010 -7.42947e-010 -2.90554 0.965183 -0.102902 2.38164e-011 8.42903e-010 -7.42935e-010 -10.2786 0.731801 -0.0259123 2.38251e-011 8.42906e-010 -7.42943e-010 -2.22167 -0.733487 0.20892 -2.03217e-016 0 -3.88251e-019 0.232656 -43.8122 7.2316 -0.644735 55.5029 1.27509 -1.59478 -10.058 -4.22715 2.03217e-016 0 3.88251e-019 -7.36617 -5.03228 12.2974 -0.119422 22.2654 -0.832332 4.29799 -20.8382 9.10944 
